<svg version="1.0" xmlns="http://www.w3.org/2000/svg" width="900.000000pt" height="900.000000pt" viewBox="0 0 900.000000 900.000000" preserveAspectRatio="xMidYMid meet">
<g transform="translate(0.000000,900.000000) scale(0.100000,-0.100000)" fill="#000000" stroke="none">
<path d="M6610 8986 c0 -8 -14 -18 -31 -21 -37 -8 -92 -33 -134 -59 -44 -28 -1112 -1094 -1143 -1141 -83 -126 -114 -294 -77 -426 40 -141 45 -148 565 -672 267 -269 523 -523 570 -564 138 -122 246 -160 418 -149 81 5 103 10 180 47 l87 42 556 556 556 556 42 87 c36 77 42 99 47 180 11 160 -23 266 -122 388 -29 36 -283 295 -566 575 -432 430 -523 515 -575 543 -35 17 -72 32 -83 32 -11 0 -29 9 -40 20 -18 18 -33 20 -135 20 -93 0 -115 -3 -115 -14z m226 -385 c21 -16 262 -253 536 -527 505 -508 528 -534 528 -606 0 -69 -25 -97 -543 -617 -519 -520 -553 -550 -623 -551 -73 0 -98 21 -608 529 -274 273 -511 514 -527 535 -25 34 -29 48 -29 105 0 60 3 70 33 106 42 52 970 980 1022 1022 36 30 46 33 106 33 57 0 71 -4 105 -29z"/>
<path d="M6672 8129 c-34 -13 -74 -46 -94 -77 -26 -40 -24 -135 3 -174 38 -53 97 -88 147 -88 112 0 202 112 172 214 -7 22 -21 53 -32 69 -39 55 -133 82 -196 56z"/>
<path d="M6147 7621 c-77 -50 -107 -152 -68 -228 37 -74 123 -115 194 -93 123 36 176 163 108 257 -46 64 -80 83 -148 83 -40 0 -67 -6 -86 -19z"/>
<path d="M7145 7621 c-104 -64 -121 -191 -38 -275 76 -75 193 -66 260 22 62 82 39 196 -50 251 -45 27 -130 29 -172 2z"/>
<path d="M6680 7138 c-43 -12 -55 -22 -92 -72 -23 -32 -28 -49 -28 -95 0 -102 70 -171 173 -171 47 0 62 5 99 33 88 67 97 184 22 260 -22 21 -53 39 -79 46 -50 13 -48 13 -95 -1z"/>
<path d="M3450 6506 c-52 -11 -70 -18 -150 -55 -56 -26 -181 -158 -214 -226 -56 -115 -56 -123 -56 -945 1 -589 4 -767 14 -810 40 -167 146 -294 313 -373 l68 -32 782 -3 c779 -3 865 0 950 32 158 59 298 231 324 399 6 38 9 365 7 842 -4 770 -4 781 -25 830 -62 145 -145 237 -275 302 -102 51 -133 53 -938 52 -524 -1 -761 -5 -800 -13z m1579 -357 c51 -22 80 -53 99 -108 17 -48 17 -1463 1 -1512 -16 -46 -46 -78 -94 -100 -38 -18 -82 -19 -773 -19 -637 0 -737 2 -769 15 -48 20 -71 41 -94 87 -18 36 -19 71 -19 773 0 733 0 736 21 778 25 48 38 61 94 87 38 19 70 20 763 20 709 0 724 0 771 -21z"/>
<path d="M4195 5541 c-69 -18 -118 -56 -162 -124 -24 -37 -27 -52 -28 -127 0 -76 3 -90 28 -132 52 -86 126 -128 227 -128 151 0 260 107 260 255 0 142 -95 249 -232 259 -35 3 -76 2 -93 -3z"/>
<path d="M360 6121 c-115 -31 -204 -90 -266 -173 -79 -107 -97 -169 -91 -313 4 -121 11 -151 51 -240 73 -160 100 -220 126 -285 11 -30 28 -68 36 -83 8 -16 14 -33 14 -38 0 -5 13 -37 29 -71 15 -35 58 -135 95 -223 37 -88 78 -184 92 -213 13 -29 24 -57 24 -61 0 -5 6 -22 14 -38 8 -15 92 -210 187 -433 169 -399 186 -438 248 -573 17 -37 31 -69 31 -72 0 -14 232 -488 277 -565 47 -82 117 -184 178 -260 61 -78 307 -329 430 -441 97 -88 266 -242 279 -254 6 -6 56 -50 111 -99 55 -50 123 -111 150 -137 28 -26 62 -59 78 -73 16 -15 27 -36 27 -51 0 -24 -2 -25 -62 -25 -82 -1 -138 -26 -177 -81 l-31 -42 0 -583 c0 -554 1 -585 19 -615 10 -17 35 -42 54 -55 l36 -24 2171 0 2171 0 36 24 c19 13 44 38 54 55 18 30 19 61 19 615 l0 583 -31 42 c-39 55 -95 80 -176 81 -60 0 -63 1 -63 24 0 15 18 40 51 72 28 27 63 60 78 74 14 14 71 66 126 115 55 49 105 94 111 100 6 5 56 51 110 100 432 394 580 549 705 740 67 102 89 141 188 340 85 172 109 224 167 353 14 31 31 71 39 87 48 107 80 182 235 545 94 223 178 421 187 440 8 19 22 51 30 70 29 65 41 94 104 245 34 83 75 178 90 213 16 34 29 66 29 71 0 5 6 22 14 38 8 15 25 53 36 83 27 66 53 125 129 293 17 37 31 74 31 83 0 24 20 55 31 49 5 -4 9 39 9 109 0 95 -3 116 -15 116 -8 0 -17 14 -21 35 -20 106 -126 231 -249 292 -49 25 -159 53 -205 53 -54 0 -160 -30 -223 -63 -80 -42 -176 -134 -228 -217 -24 -39 -52 -83 -61 -98 -9 -15 -23 -37 -30 -49 -16 -28 -247 -404 -270 -441 -10 -15 -22 -36 -28 -47 -6 -11 -18 -32 -28 -46 -14 -23 -61 -99 -97 -161 -44 -75 -159 -258 -175 -278 l-19 -25 -63 22 c-187 66 -378 24 -505 -111 -32 -34 -67 -73 -78 -86 -11 -14 -110 -138 -220 -275 -110 -138 -202 -252 -205 -255 -7 -6 -104 -126 -170 -210 -248 -316 -343 -402 -861 -775 -335 -242 -603 -519 -719 -743 -25 -48 -55 -56 -70 -18 -35 93 -216 324 -358 456 -100 94 -137 113 -204 107 -93 -8 -158 -80 -158 -174 0 -62 12 -78 152 -221 105 -108 208 -230 208 -248 0 -4 6 -15 14 -23 19 -21 90 -162 111 -221 60 -167 85 -295 85 -432 l0 -108 -735 0 -735 0 -1 73 c0 121 -13 141 -201 312 -213 194 -472 430 -523 475 -98 88 -325 313 -391 388 -70 80 -148 189 -187 262 -11 19 -27 49 -37 65 -10 17 -41 75 -68 130 -45 89 -68 138 -132 280 -10 22 -32 70 -49 108 -17 37 -31 69 -31 72 0 3 -14 35 -31 72 -33 74 -52 115 -74 165 -8 18 -25 58 -38 88 -14 30 -35 80 -47 110 -13 30 -33 78 -45 105 -13 28 -33 75 -45 105 -27 66 -42 103 -63 150 -8 19 -50 118 -92 220 -42 102 -83 199 -90 215 -17 39 -39 91 -59 138 -9 20 -22 52 -30 70 -8 17 -64 151 -126 297 -62 146 -116 269 -121 274 -5 6 -9 38 -9 71 0 57 3 65 35 98 32 33 42 37 84 37 71 0 117 -46 227 -225 49 -80 97 -158 106 -173 10 -15 21 -34 25 -42 4 -8 19 -33 33 -55 14 -22 30 -49 37 -60 6 -11 57 -94 113 -185 56 -91 107 -174 113 -185 7 -11 23 -38 37 -60 14 -22 29 -47 33 -55 4 -8 15 -27 25 -42 9 -15 54 -87 100 -161 l82 -135 0 -79 c0 -79 22 -186 58 -278 44 -116 76 -190 121 -287 17 -37 31 -70 31 -73 0 -24 232 -485 302 -600 10 -16 21 -37 25 -45 14 -31 68 -117 96 -153 71 -92 208 -86 282 12 26 34 29 159 4 187 -9 11 -19 26 -23 34 -3 8 -15 29 -26 45 -11 17 -26 44 -34 60 -8 17 -29 55 -47 85 -41 72 -153 291 -206 405 -74 160 -102 226 -209 485 -8 19 -16 63 -17 97 -2 72 12 93 73 113 32 11 45 11 72 -1 36 -15 44 -24 174 -184 123 -153 417 -518 474 -590 72 -90 100 -107 175 -107 72 0 103 16 146 76 37 50 40 121 7 175 -19 31 -161 216 -178 231 -3 3 -112 138 -242 301 -130 163 -256 314 -280 337 -118 115 -313 150 -486 89 l-63 -22 -19 25 c-16 20 -131 203 -175 278 -36 62 -83 138 -97 161 -10 14 -22 35 -28 46 -6 11 -18 32 -28 47 -9 15 -71 115 -137 223 -66 108 -128 208 -137 223 -9 15 -23 37 -30 49 -128 218 -240 315 -409 357 -82 20 -127 19 -209 -3z m8233 -378 c63 -63 58 -88 -84 -423 -67 -157 -127 -298 -134 -315 -7 -16 -20 -48 -30 -70 -9 -22 -23 -53 -29 -70 -7 -16 -20 -46 -28 -65 -9 -19 -51 -118 -93 -220 -42 -102 -83 -200 -91 -217 -8 -18 -20 -48 -28 -65 -8 -18 -24 -58 -36 -88 -12 -30 -32 -77 -45 -105 -12 -27 -39 -90 -60 -140 -20 -49 -41 -94 -46 -99 -5 -6 -9 -16 -9 -23 0 -7 -14 -43 -31 -80 -17 -38 -44 -96 -60 -131 -16 -34 -29 -64 -29 -67 0 -3 -14 -35 -31 -72 -17 -38 -39 -86 -49 -108 -64 -142 -87 -191 -132 -280 -27 -55 -58 -113 -68 -130 -10 -16 -26 -46 -37 -65 -39 -73 -117 -182 -187 -262 -66 -75 -292 -299 -391 -388 -123 -110 -271 -244 -275 -250 -3 -3 -77 -70 -165 -150 -239 -215 -244 -221 -265 -268 -14 -31 -20 -67 -20 -118 l0 -74 -735 0 -735 0 0 108 c0 305 134 628 359 866 146 154 257 244 663 539 269 195 474 386 615 572 26 33 51 65 57 70 7 6 30 33 51 61 22 28 121 152 220 274 99 123 220 273 269 334 126 158 138 170 174 185 27 12 40 12 72 1 58 -19 73 -40 72 -105 0 -49 -26 -145 -51 -193 -5 -9 -26 -57 -46 -107 -35 -84 -66 -157 -100 -230 -36 -80 -179 -367 -211 -425 -20 -36 -48 -87 -63 -113 -33 -60 -39 -71 -76 -127 -26 -39 -30 -54 -30 -115 0 -55 4 -76 20 -96 51 -68 144 -96 216 -65 44 19 120 115 162 206 4 8 15 29 25 45 68 112 302 577 302 600 0 3 14 35 31 72 57 125 79 178 121 288 34 89 58 204 58 282 l0 75 83 134 c45 74 88 145 95 157 7 12 21 34 30 49 14 22 253 413 295 483 7 10 23 37 37 60 13 22 29 48 35 57 122 208 225 366 263 399 39 34 51 39 92 39 40 0 52 -5 83 -37z m-4285 -5050 l-3 -348 -850 -3 c-467 -1 -860 0 -872 3 l-23 5 0 339 c0 186 3 341 7 344 3 4 397 7 875 7 l868 0 -2 -347z m2110 0 l2 -343 -22 -5 c-13 -3 -405 -4 -873 -3 l-850 3 -3 348 -2 347 872 -2 873 -3 3 -342z"/>
<path d="M3220 3297 c-77 -37 -110 -86 -110 -163 0 -57 27 -105 83 -145 123 -89 298 39 258 189 -27 102 -142 161 -231 119z"/>
</g>
</svg>